<?xml version="1.0" encoding="UTF-8"?>
<!-- Generator: Adobe Illustrator 19.1.0, SVG Export Plug-In . SVG Version: 6.00 Build 0)  -->
<svg xmlns="http://www.w3.org/2000/svg" xmlns:xlink="http://www.w3.org/1999/xlink" xmlns:dc="http://purl.org/dc/elements/1.1/" xmlns:cc="http://creativecommons.org/ns#" xmlns:rdf="http://www.w3.org/1999/02/22-rdf-syntax-ns#" version="1.1" id="DESIGNS" x="0px" y="0px" width="32px" height="32px" viewBox="0 0 32 32" style="enable-background:new 0 0 32 32;" xml:space="preserve">
<title property="dc:title">to visualize</title><desc property="dc:description">An icon for "visualize" from the Blueprint series on to [icon]. Downloaded from http://www.toicon.com/icons/blueprint_visualize by 94.228.207.195 on 2020-04-22. Licensed CC-BY, see http://toicon.com/license/ for details.</desc>
<path class="blueprint_een" d="M16,1C7.729,1,1,7.729,1,16s6.729,15,15,15s15-6.729,15-15S24.271,1,16,1z M28.949,15H17V3.051  C23.37,3.539,28.461,8.63,28.949,15z M3,16C3,8.832,8.832,3,16,3v13l4.876,12.043C19.369,28.655,17.725,29,16,29  C8.832,29,3,23.168,3,16z M21.786,27.625l-4.159-10.29l7.701,7.701C24.307,26.088,23.11,26.963,21.786,27.625z M26.001,24.294  L17.707,16H29C29,19.151,27.872,22.042,26.001,24.294z" style="fill: #111918;"/>
<metadata><work rdf:about=""><format>image/svg+xml</format><type rdf:resource="http://purl.org/dc/dcmitype/StillImage"/><license rdf:resource="http://creativecommons.org/licenses/by/4.0/"/><attributionname>Shannon E Thomas</attributionname><attributionurl>http://www.toicon.com/icons/blueprint_visualize</attributionurl></work></metadata></svg>
