<?xml version="1.0" encoding="UTF-8"?>
<!-- Generator: Adobe Illustrator 19.1.0, SVG Export Plug-In . SVG Version: 6.00 Build 0)  -->
<svg xmlns="http://www.w3.org/2000/svg" xmlns:xlink="http://www.w3.org/1999/xlink" xmlns:dc="http://purl.org/dc/elements/1.1/" xmlns:cc="http://creativecommons.org/ns#" xmlns:rdf="http://www.w3.org/1999/02/22-rdf-syntax-ns#" version="1.1" id="DESIGNS" x="0px" y="0px" width="32px" height="32px" viewBox="0 0 32 32" style="enable-background:new 0 0 32 32;" xml:space="preserve">
<title property="dc:title">to search</title><desc property="dc:description">An icon for "search" from the Blueprint series on to [icon]. Downloaded from http://www.toicon.com/icons/blueprint_search by 94.228.207.195 on 2020-04-22. Licensed CC-BY, see http://toicon.com/license/ for details.</desc>
<path class="blueprint_een" d="M12,3c-4.971,0-9,4.029-9,9c0,4.971,4.029,9,9,9s9-4.029,9-9C21,7.029,16.971,3,12,3z M12,20  c-4.418,0-8-3.582-8-8s3.582-8,8-8s8,3.582,8,8S16.418,20,12,20z M31.707,26.707l-7-7c-0.391-0.391-1.024-0.391-1.414,0  l-1.086,1.086l-1.048-1.048C22.928,17.654,24,14.954,24,12c0-6.627-5.373-12-12-12S0,5.373,0,12c0,6.627,5.373,12,12,12  c2.954,0,5.654-1.072,7.745-2.841l1.048,1.048l-1.086,1.086c-0.391,0.391-0.391,1.024,0,1.414l7,7c0.391,0.391,1.024,0.391,1.414,0  l3.586-3.586C32.098,27.731,32.098,27.098,31.707,26.707z M12,22C6.477,22,2,17.523,2,12C2,6.477,6.477,2,12,2s10,4.477,10,10  C22,17.523,17.523,22,12,22z M27.414,29.586L21.828,24L24,21.828l5.586,5.586L27.414,29.586z" style="fill: #111918;"/>
<metadata><work rdf:about=""><format>image/svg+xml</format><type rdf:resource="http://purl.org/dc/dcmitype/StillImage"/><license rdf:resource="http://creativecommons.org/licenses/by/4.0/"/><attributionname>Shannon E Thomas</attributionname><attributionurl>http://www.toicon.com/icons/blueprint_search</attributionurl></work></metadata></svg>
