<?xml version="1.0" encoding="UTF-8"?>
<!-- Generator: Adobe Illustrator 19.1.0, SVG Export Plug-In . SVG Version: 6.00 Build 0)  -->
<svg xmlns="http://www.w3.org/2000/svg" xmlns:xlink="http://www.w3.org/1999/xlink" xmlns:dc="http://purl.org/dc/elements/1.1/" xmlns:cc="http://creativecommons.org/ns#" xmlns:rdf="http://www.w3.org/1999/02/22-rdf-syntax-ns#" version="1.1" id="DESIGNS" x="0px" y="0px" width="32px" height="32px" viewBox="0 0 32 32" style="enable-background:new 0 0 32 32;" xml:space="preserve">
<title property="dc:title">to download</title><desc property="dc:description">An icon for "download" from the Blueprint series on to [icon]. Downloaded from http://www.toicon.com/icons/blueprint_download by 94.228.207.195 on 2020-04-22. Licensed CC-BY, see http://toicon.com/license/ for details.</desc>
<path class="blueprint_een" d="M31,12H20V3c0-0.553-0.448-1-1-1h-6c-0.552,0-1,0.447-1,1v9H1c-0.552,0-1,0.447-1,1v16  c0,0.553,0.448,1,1,1h30c0.552,0,1-0.447,1-1V13C32,12.447,31.552,12,31,12z M14,14V4h4v10h2.586L16,18.586L11.414,14H14z M2,14h8  l2,2H2V14z M2,17h11l2,2H2V17z M30,28H2v-2h28V28z M30,25H2v-2h28V25z M30,22H2v-2h28V22z M30,19H17l2-2h11V19z M30,16H20l2-2h8V16z  " style="fill: #111918;"/>
<metadata><work rdf:about=""><format>image/svg+xml</format><type rdf:resource="http://purl.org/dc/dcmitype/StillImage"/><license rdf:resource="http://creativecommons.org/licenses/by/4.0/"/><attributionname>Shannon E Thomas</attributionname><attributionurl>http://www.toicon.com/icons/blueprint_download</attributionurl></work></metadata></svg>
