<svg id="Layer_1" data-name="Layer 1" xmlns="http://www.w3.org/2000/svg" viewBox="0 0 512 512"><defs><style>.cls-1{fill:#ffd38d;}.cls-2{fill:#6d4135;}.cls-3{opacity:0.1;}</style></defs><title>check-flat</title><path class="cls-1" d="M256,0C114.84,0,0,114.84,0,256S114.84,512,256,512,512,397.16,512,256,397.16,0,256,0Z"/><path class="cls-2" d="M234.66,341.33a21.24,21.24,0,0,1-11.82-3.58l-64-42.67a21.33,21.33,0,0,1,23.67-35.5l48.05,32,94.39-113.27a21.33,21.33,0,0,1,32.78,27.31l-106.67,128A21.31,21.31,0,0,1,234.66,341.33Z"/><g class="cls-3"><path d="M512,256c0,141.12-114.88,256-256,256V0C397.12,0,512,114.88,512,256Z"/></g></svg>