<svg id="Layer_1" data-name="Layer 1" xmlns="http://www.w3.org/2000/svg" viewBox="0 0 512 512"><defs><style>.cls-1{fill:#ffd38d;}.cls-2{opacity:0.1;}.cls-3{fill:#6d4135;}</style></defs><title>box-arrow-up-flat</title><rect class="cls-1" x="42.67" width="426.67" height="426.67" rx="21.33" ry="21.33"/><g class="cls-2"><path d="M469.33,21.33v384A21.4,21.4,0,0,1,448,426.67H256V0H448A21.4,21.4,0,0,1,469.33,21.33Z"/></g><path class="cls-3" d="M335.08,262.25l-64-64a21.33,21.33,0,0,0-30.17,0l-64,64a21.33,21.33,0,0,0,30.17,30.17l27.58-27.58V490.67a21.33,21.33,0,1,0,42.67,0V264.84l27.58,27.58a21.33,21.33,0,0,0,30.17-30.17Z"/></svg>