<svg id="Layer_1" data-name="Layer 1" xmlns="http://www.w3.org/2000/svg" viewBox="0 0 512 512"><defs><style>.cls-1{fill:#6d4135;}.cls-2{opacity:0.1;}.cls-3{fill:#ffd38d;}</style></defs><title>pad-pencil-flat</title><rect class="cls-1" y="78.5" width="433.53" height="433.5" rx="21.68" ry="21.68"/><g class="cls-2"><path d="M433.53,100.17V490.32A21.74,21.74,0,0,1,411.85,512H216.77V78.5H411.85A21.74,21.74,0,0,1,433.53,100.17Z"/></g><path class="cls-3" d="M495.39,16.65a56.81,56.81,0,0,0-80.36,0L209.1,222.56a10.83,10.83,0,0,0-3.18,7.66v65a10.84,10.84,0,0,0,10.84,10.84h65a10.84,10.84,0,0,0,7.66-3.18L495.39,97A56.89,56.89,0,0,0,495.39,16.65Z"/><path class="cls-1" d="M495.39,16.65a56.88,56.88,0,0,0-80.36,0l-45.6,45.59,80.36,80.35L495.39,97A56.88,56.88,0,0,0,495.39,16.65Z"/><g class="cls-2"><path d="M216.77,306.09h65a10.84,10.84,0,0,0,7.66-3.18L495.39,97a56.89,56.89,0,0,0,0-80.35L209.1,302.91A10.8,10.8,0,0,0,216.77,306.09Z"/></g></svg>