<svg id="Layer_1" data-name="Layer 1" xmlns="http://www.w3.org/2000/svg" viewBox="0 0 512 512"><defs><style>.cls-1{fill:#ffd38d;}.cls-2{opacity:0.1;}.cls-3{fill:#6d4135;}</style></defs><title>box-arrow-down-flat</title><rect class="cls-1" x="42.67" y="85.33" width="426.67" height="426.67" rx="21.33" ry="21.33"/><g class="cls-2"><path d="M469.33,106.67v384A21.4,21.4,0,0,1,448,512H256V85.33H448A21.4,21.4,0,0,1,469.33,106.67Z"/></g><path class="cls-3" d="M335.08,219.58a21.33,21.33,0,0,0-30.17,0l-27.58,27.58V21.33a21.33,21.33,0,0,0-42.67,0V247.16l-27.58-27.58a21.33,21.33,0,0,0-30.17,30.17l64,64a21.33,21.33,0,0,0,30.17,0l64-64A21.33,21.33,0,0,0,335.08,219.58Z"/></svg>