<svg id="Layer_1" data-name="Layer 1" xmlns="http://www.w3.org/2000/svg" viewBox="0 0 512 512"><defs><style>.cls-1{fill:#ffd38d;}.cls-2{fill:#6d4135;}.cls-3{opacity:0.1;}</style></defs><title>pencil-flat</title><path class="cls-1" d="M483.68,164.88,142.83,505.71a20.94,20.94,0,0,1-15,6.29H21.3A21.26,21.26,0,0,1,0,490.7V384.19a21.28,21.28,0,0,1,6.18-15L347,28.33a96.56,96.56,0,0,1,136.66,0c.11.11.32.32.32.43A96.43,96.43,0,0,1,483.68,164.88Z"/><path class="cls-2" d="M483.71,28.29a96.63,96.63,0,0,0-136.64,0L278.75,96.61,415.39,233.24l68.32-68.32a96.63,96.63,0,0,0,0-136.63Z"/><g class="cls-3"><path d="M483.68,164.88,142.83,505.71a20.94,20.94,0,0,1-15,6.29H21.3a21.15,21.15,0,0,1-14.7-5.86L484,28.76A96.43,96.43,0,0,1,483.68,164.88Z"/></g></svg>