<svg id="Layer_1" data-name="Layer 1" xmlns="http://www.w3.org/2000/svg" viewBox="0 0 512 512"><defs><style>.cls-1{fill:#6d4135;}.cls-2{fill:#ffd38d;}.cls-3{opacity:0.1;}</style></defs><title>magnifying-glass-flat</title><path class="cls-1" d="M490.67,512a21.26,21.26,0,0,1-15.08-6.25L334,364.2A21.33,21.33,0,0,1,364.2,334L505.75,475.58A21.33,21.33,0,0,1,490.67,512Z"/><path class="cls-2" d="M426.67,213.33C426.67,331,331,426.67,213.33,426.67S0,331,0,213.33,95.68,0,213.33,0,426.67,95.68,426.67,213.33Z"/><g class="cls-3"><path d="M426.67,213.33C426.67,331,331,426.67,213.33,426.67V0C331,0,426.67,95.68,426.67,213.33Z"/></g></svg>