<svg id="Layer_1" data-name="Layer 1" xmlns="http://www.w3.org/2000/svg" viewBox="0 0 512 512"><defs><style>.cls-1{fill:#ffd38d;}.cls-2{fill:#6d4135;}.cls-3{opacity:0.1;}</style></defs><title>monitor-flat</title><path class="cls-1" d="M512,42.67V320H0V42.67A21.4,21.4,0,0,1,21.33,21.33H490.67A21.4,21.4,0,0,1,512,42.67Z"/><path class="cls-2" d="M341.33,448h-64V384a21.33,21.33,0,1,0-42.67,0v64h-64a21.33,21.33,0,1,0,0,42.67H341.33a21.33,21.33,0,1,0,0-42.67Z"/><path class="cls-2" d="M512,320v64a21.4,21.4,0,0,1-21.33,21.33H21.33A21.4,21.4,0,0,1,0,384V320Z"/><g class="cls-3"><path d="M512,42.67V384a21.4,21.4,0,0,1-21.33,21.33H277.33V448h64a21.33,21.33,0,1,1,0,42.67H256V21.33H490.67A21.4,21.4,0,0,1,512,42.67Z"/></g></svg>