<svg id="Layer_1" data-name="Layer 1" xmlns="http://www.w3.org/2000/svg" viewBox="0 0 512 512"><defs><style>.cls-1{fill:#ffd38d;}.cls-2{fill:#6d4135;}.cls-3{opacity:0.1;}</style></defs><title>floppy-disk-flat</title><path class="cls-1" d="M490.67,128V490.67A21.4,21.4,0,0,1,469.33,512H42.67a21.4,21.4,0,0,1-21.33-21.33V21.33A21.4,21.4,0,0,1,42.67,0h320a21,21,0,0,1,15,6.29L484.37,113A21,21,0,0,1,490.67,128Z"/><path class="cls-2" d="M384,298.67H128A21.33,21.33,0,0,0,106.67,320V512H405.33V320A21.33,21.33,0,0,0,384,298.67Z"/><path class="cls-2" d="M149.33,170.67h192a21.33,21.33,0,0,0,21.33-21.33V0H128V149.33A21.33,21.33,0,0,0,149.33,170.67Z"/><path class="cls-1" d="M298.67,426.67H213.33a21.33,21.33,0,0,1,0-42.67h85.33a21.33,21.33,0,0,1,0,42.67Z"/><rect class="cls-1" x="170.67" width="42.67" height="106.67"/><g class="cls-3"><path d="M490.67,128V490.67A21.4,21.4,0,0,1,469.33,512H256V0H362.67a21,21,0,0,1,15,6.29L484.37,113A21,21,0,0,1,490.67,128Z"/></g></svg>